<svg xmlns="http://www.w3.org/2000/svg" viewBox="0 0 120 120">
  <defs><linearGradient id="bg" x1="0" y1="0" x2="1" y2="1"><stop offset="0%" stop-color="#1a1a2e"/><stop offset="100%" stop-color="#16213e"/></linearGradient></defs>
  <circle cx="60" cy="60" r="58" fill="url(#bg)" stroke="#8da3cc" stroke-width="2" opacity="0.9"/>
  <!-- RNA strand (wavy, single-stranded) -->
  <path d="M20,45 Q30,30 40,45 Q50,60 60,45 Q70,30 80,45 Q90,60 100,45" fill="none" stroke="#d0946e" stroke-width="2.5" opacity="0.7"/>
  <!-- Secondary structure hairpins -->
  <path d="M40,45 Q40,60 50,60 Q60,60 60,45" fill="none" stroke="#dbb976" stroke-width="1.5" opacity="0.5"/>
  <!-- Editing tool -->
  <g transform="translate(60,72)">
    <rect x="-15" y="-5" width="30" height="10" rx="3" fill="#8da3cc" opacity="0.3"/>
    <text x="0" y="3" text-anchor="middle" font-family="monospace" font-size="6" fill="#8da3cc" opacity="0.7">A→G</text>
  </g>
  <!-- Brain (neuroscience application) -->
  <path d="M28,75 Q22,68 28,62 Q34,56 40,62 Q46,56 52,62 Q58,68 52,75 Q46,82 40,82 Q34,82 28,75" fill="none" stroke="#85b89a" stroke-width="1.5" opacity="0.4"/>
  <!-- Arc Institute dots -->
  <circle cx="85" cy="75" r="3" fill="#8da3cc" opacity="0.4"/>
  <circle cx="92" cy="80" r="2" fill="#dbb976" opacity="0.3"/>
  <circle cx="88" cy="85" r="2.5" fill="#85b89a" opacity="0.35"/>
  <text x="60" y="108" text-anchor="middle" font-family="sans-serif" font-size="7" font-weight="bold" fill="#8da3cc" opacity="0.6">RNA ENGINEERING</text>
</svg>