<svg xmlns="http://www.w3.org/2000/svg" viewBox="0 0 120 120">
  <defs><linearGradient id="bg" x1="0" y1="0" x2="1" y2="1"><stop offset="0%" stop-color="#1a1a2e"/><stop offset="100%" stop-color="#16213e"/></linearGradient></defs>
  <circle cx="60" cy="60" r="58" fill="url(#bg)" stroke="#85b89a" stroke-width="2" opacity="0.9"/>
  <!-- Engineered T-cell -->
  <circle cx="60" cy="48" r="22" fill="#85b89a" opacity="0.1"/>
  <circle cx="60" cy="48" r="22" fill="none" stroke="#85b89a" stroke-width="2" opacity="0.6"/>
  <!-- Nucleus -->
  <circle cx="60" cy="48" r="8" fill="#8da3cc" opacity="0.2"/>
  <circle cx="60" cy="48" r="8" fill="none" stroke="#8da3cc" stroke-width="1.5" opacity="0.5"/>
  <!-- CAR receptor on surface -->
  <line x1="60" y1="26" x2="60" y2="18" stroke="#dbb976" stroke-width="2" opacity="0.8"/>
  <path d="M54,18 L60,12 L66,18" fill="none" stroke="#dbb976" stroke-width="2" opacity="0.8"/>
  <line x1="82" y1="48" x2="90" y2="48" stroke="#dbb976" stroke-width="2" opacity="0.7"/>
  <path d="M90,44 L96,48 L90,52" fill="none" stroke="#dbb976" stroke-width="2" opacity="0.7"/>
  <!-- Genetic circuit lines -->
  <g transform="translate(25,78)" opacity="0.5">
    <line x1="0" y1="0" x2="15" y2="0" stroke="#85b89a" stroke-width="1.5"/>
    <rect x="15" y="-4" width="10" height="8" rx="1" fill="none" stroke="#dbb976" stroke-width="1"/>
    <line x1="25" y1="0" x2="40" y2="0" stroke="#85b89a" stroke-width="1.5"/>
    <polygon points="40,-4 48,0 40,4" fill="#d0946e" opacity="0.6"/>
    <line x1="48" y1="0" x2="60" y2="0" stroke="#85b89a" stroke-width="1.5"/>
  </g>
  <text x="60" y="108" text-anchor="middle" font-family="sans-serif" font-size="7" font-weight="bold" fill="#85b89a" opacity="0.6">CELL ENGINEERING</text>
</svg>